<mxfile host="app.diagrams.net" modified="2024-04-15T06:11:45.497Z" agent="Mozilla/5.0 (Macintosh; Intel Mac OS X 10_15_7) AppleWebKit/537.36 (KHTML, like Gecko) Chrome/123.0.0.0 Safari/537.36" etag="VcM-W5awJrflyRvpvFBl" version="24.2.5" type="device">
  <diagram name="Page-1" id="PFfNBrce9WFTCQyNHP7d">
    <mxGraphModel dx="2074" dy="1146" grid="1" gridSize="10" guides="1" tooltips="1" connect="1" arrows="1" fold="1" page="1" pageScale="1" pageWidth="850" pageHeight="1100" math="0" shadow="0">
      <root>
        <mxCell id="0" />
        <mxCell id="1" parent="0" />
        <mxCell id="muHszNeMJqfiCZ4DPC4F-1" value="" style="whiteSpace=wrap;html=1;aspect=fixed;" vertex="1" parent="1">
          <mxGeometry x="70" y="150" width="230" height="230" as="geometry" />
        </mxCell>
        <mxCell id="muHszNeMJqfiCZ4DPC4F-2" value="" style="whiteSpace=wrap;html=1;aspect=fixed;" vertex="1" parent="1">
          <mxGeometry x="490" y="150" width="230" height="230" as="geometry" />
        </mxCell>
        <mxCell id="muHszNeMJqfiCZ4DPC4F-3" value="" style="whiteSpace=wrap;html=1;aspect=fixed;" vertex="1" parent="1">
          <mxGeometry x="280" y="390" width="230" height="230" as="geometry" />
        </mxCell>
        <mxCell id="muHszNeMJqfiCZ4DPC4F-4" value="" style="rounded=0;whiteSpace=wrap;html=1;" vertex="1" parent="1">
          <mxGeometry x="80" y="160" width="210" height="20" as="geometry" />
        </mxCell>
        <mxCell id="muHszNeMJqfiCZ4DPC4F-5" value="" style="rounded=0;whiteSpace=wrap;html=1;" vertex="1" parent="1">
          <mxGeometry x="500" y="160" width="210" height="20" as="geometry" />
        </mxCell>
        <mxCell id="muHszNeMJqfiCZ4DPC4F-6" value="" style="rounded=0;whiteSpace=wrap;html=1;" vertex="1" parent="1">
          <mxGeometry x="290" y="400" width="210" height="20" as="geometry" />
        </mxCell>
        <mxCell id="muHszNeMJqfiCZ4DPC4F-7" value="" style="rounded=0;whiteSpace=wrap;html=1;" vertex="1" parent="1">
          <mxGeometry x="80" y="340" width="210" height="30" as="geometry" />
        </mxCell>
        <mxCell id="muHszNeMJqfiCZ4DPC4F-8" value="" style="rounded=0;whiteSpace=wrap;html=1;" vertex="1" parent="1">
          <mxGeometry x="500" y="340" width="210" height="30" as="geometry" />
        </mxCell>
        <mxCell id="muHszNeMJqfiCZ4DPC4F-9" value="" style="rounded=0;whiteSpace=wrap;html=1;" vertex="1" parent="1">
          <mxGeometry x="290" y="580" width="210" height="30" as="geometry" />
        </mxCell>
        <mxCell id="muHszNeMJqfiCZ4DPC4F-10" value="" style="rounded=0;whiteSpace=wrap;html=1;" vertex="1" parent="1">
          <mxGeometry x="80" y="190" width="20" height="130" as="geometry" />
        </mxCell>
        <mxCell id="muHszNeMJqfiCZ4DPC4F-11" value="" style="rounded=0;whiteSpace=wrap;html=1;" vertex="1" parent="1">
          <mxGeometry x="500" y="190" width="20" height="130" as="geometry" />
        </mxCell>
        <mxCell id="muHszNeMJqfiCZ4DPC4F-12" value="" style="rounded=0;whiteSpace=wrap;html=1;" vertex="1" parent="1">
          <mxGeometry x="480" y="430" width="20" height="130" as="geometry" />
        </mxCell>
        <mxCell id="muHszNeMJqfiCZ4DPC4F-13" value="" style="rounded=0;whiteSpace=wrap;html=1;" vertex="1" parent="1">
          <mxGeometry x="290" y="430" width="180" height="130" as="geometry" />
        </mxCell>
        <mxCell id="muHszNeMJqfiCZ4DPC4F-14" value="" style="rounded=0;whiteSpace=wrap;html=1;" vertex="1" parent="1">
          <mxGeometry x="110" y="190" width="170" height="10" as="geometry" />
        </mxCell>
        <mxCell id="muHszNeMJqfiCZ4DPC4F-15" value="" style="whiteSpace=wrap;html=1;aspect=fixed;" vertex="1" parent="1">
          <mxGeometry x="120" y="210" width="30" height="30" as="geometry" />
        </mxCell>
        <mxCell id="muHszNeMJqfiCZ4DPC4F-16" value="" style="whiteSpace=wrap;html=1;aspect=fixed;" vertex="1" parent="1">
          <mxGeometry x="180" y="210" width="30" height="30" as="geometry" />
        </mxCell>
        <mxCell id="muHszNeMJqfiCZ4DPC4F-17" value="" style="whiteSpace=wrap;html=1;aspect=fixed;" vertex="1" parent="1">
          <mxGeometry x="230" y="210" width="30" height="30" as="geometry" />
        </mxCell>
        <mxCell id="muHszNeMJqfiCZ4DPC4F-18" value="" style="whiteSpace=wrap;html=1;aspect=fixed;" vertex="1" parent="1">
          <mxGeometry x="120" y="260" width="30" height="30" as="geometry" />
        </mxCell>
        <mxCell id="muHszNeMJqfiCZ4DPC4F-19" value="" style="whiteSpace=wrap;html=1;aspect=fixed;" vertex="1" parent="1">
          <mxGeometry x="180" y="260" width="30" height="30" as="geometry" />
        </mxCell>
        <mxCell id="muHszNeMJqfiCZ4DPC4F-20" value="" style="whiteSpace=wrap;html=1;aspect=fixed;" vertex="1" parent="1">
          <mxGeometry x="230" y="260" width="30" height="30" as="geometry" />
        </mxCell>
        <mxCell id="muHszNeMJqfiCZ4DPC4F-23" value="" style="endArrow=none;html=1;rounded=0;" edge="1" parent="1">
          <mxGeometry width="50" height="50" relative="1" as="geometry">
            <mxPoint x="120" y="310" as="sourcePoint" />
            <mxPoint x="250" y="310" as="targetPoint" />
            <Array as="points">
              <mxPoint x="180" y="310" />
            </Array>
          </mxGeometry>
        </mxCell>
        <mxCell id="muHszNeMJqfiCZ4DPC4F-24" value="" style="whiteSpace=wrap;html=1;aspect=fixed;" vertex="1" parent="1">
          <mxGeometry x="540" y="190" width="30" height="30" as="geometry" />
        </mxCell>
        <mxCell id="muHszNeMJqfiCZ4DPC4F-26" value="" style="rounded=0;whiteSpace=wrap;html=1;" vertex="1" parent="1">
          <mxGeometry x="590" y="190" width="120" height="30" as="geometry" />
        </mxCell>
        <mxCell id="muHszNeMJqfiCZ4DPC4F-27" value="" style="rounded=0;whiteSpace=wrap;html=1;" vertex="1" parent="1">
          <mxGeometry x="540" y="240" width="170" height="80" as="geometry" />
        </mxCell>
        <mxCell id="muHszNeMJqfiCZ4DPC4F-28" value="" style="endArrow=classic;html=1;rounded=0;exitX=0.75;exitY=1;exitDx=0;exitDy=0;entryX=0.361;entryY=-0.004;entryDx=0;entryDy=0;entryPerimeter=0;" edge="1" parent="1" source="muHszNeMJqfiCZ4DPC4F-20" target="muHszNeMJqfiCZ4DPC4F-3">
          <mxGeometry width="50" height="50" relative="1" as="geometry">
            <mxPoint x="400" y="610" as="sourcePoint" />
            <mxPoint x="450" y="560" as="targetPoint" />
          </mxGeometry>
        </mxCell>
        <mxCell id="muHszNeMJqfiCZ4DPC4F-29" value="" style="endArrow=classic;html=1;rounded=0;exitX=1;exitY=0.087;exitDx=0;exitDy=0;exitPerimeter=0;entryX=0.004;entryY=0.1;entryDx=0;entryDy=0;entryPerimeter=0;" edge="1" parent="1" source="muHszNeMJqfiCZ4DPC4F-1" target="muHszNeMJqfiCZ4DPC4F-2">
          <mxGeometry width="50" height="50" relative="1" as="geometry">
            <mxPoint x="400" y="610" as="sourcePoint" />
            <mxPoint x="450" y="560" as="targetPoint" />
          </mxGeometry>
        </mxCell>
        <mxCell id="muHszNeMJqfiCZ4DPC4F-30" value="" style="endArrow=classic;html=1;rounded=0;exitX=0.25;exitY=1;exitDx=0;exitDy=0;entryX=0.5;entryY=0;entryDx=0;entryDy=0;" edge="1" parent="1" source="muHszNeMJqfiCZ4DPC4F-27" target="muHszNeMJqfiCZ4DPC4F-3">
          <mxGeometry width="50" height="50" relative="1" as="geometry">
            <mxPoint x="400" y="610" as="sourcePoint" />
            <mxPoint x="450" y="560" as="targetPoint" />
          </mxGeometry>
        </mxCell>
      </root>
    </mxGraphModel>
  </diagram>
</mxfile>
